<svg xmlns="http://www.w3.org/2000/svg" version="1.1" xmlns:xlink="http://www.w3.org/1999/xlink" xmlns:svgjs="http://svgjs.com/svgjs" width="1442" height="558" preserveAspectRatio="none" viewBox="0 0 1442 558"><g mask="url(&quot;#SvgjsMask1045&quot;)" fill="none"><rect width="1442" height="558" x="0" y="0" fill="#1e3266"></rect><path d="M1538.1333333333334 558L0 558 L0 316.79Q85.58 282.2, 120.16666666666667 367.78Q142.36 317.87, 192.26666666666668 340.06Q281 308.62, 312.43333333333334 397.35Q336.01 348.82, 384.53333333333336 372.4Q451.81 319.51, 504.70000000000005 386.78Q524.25 334.23, 576.8000000000001 353.77Q630.8 287.61, 696.9666666666667 341.61Q727.91 300.46, 769.0666666666667 331.4Q825.78 316.01, 841.1666666666667 372.72Q893.71 305.1, 961.3333333333334 357.64Q990.43 314.63, 1033.4333333333334 343.73Q1061.39 299.59, 1105.5333333333333 327.54Q1158.34 260.18, 1225.7 312.99Q1284.29 299.48, 1297.8 358.07Q1346.73 286.83, 1417.9666666666667 335.76Q1502.74 300.37, 1538.1333333333334 385.14z" fill="#182f5d"></path><path d="M1490.0666666666664 558L0 558 L0 373.87Q67.18 320.89, 120.16666666666667 388.07Q165.12 360.92, 192.26666666666668 405.87Q237.82 379.32, 264.3666666666667 424.87Q341.48 381.82, 384.53333333333336 458.93Q436.42 390.65, 504.70000000000005 442.53Q534.79 352.46, 624.8666666666667 382.55Q675.69 361.27, 696.9666666666667 412.1Q764.5 359.47, 817.1333333333333 427Q861.15 398.91, 889.2333333333333 442.93Q900.34 381.94, 961.3333333333334 393.05Q1037.51 349.06, 1081.5 425.23Q1133.05 404.68, 1153.6 456.23Q1154.75 385.28, 1225.6999999999998 386.43Q1255.84 344.48, 1297.7999999999997 374.62Q1384.04 340.7, 1417.9666666666665 426.94Q1468.26 405.13, 1490.0666666666664 455.42z" fill="#25467d"></path><path d="M1466.0333333333333 558L0 558 L0 482.47Q36.33 446.7, 72.10000000000001 483.04Q123.3 462.14, 144.20000000000002 513.34Q158.62 455.66, 216.3 470.08Q284.08 417.69, 336.4666666666667 485.47Q380.94 409.77, 456.6333333333334 454.24Q541.17 418.61, 576.8000000000001 503.14Q631.49 437.67, 696.9666666666667 492.36Q707.46 430.76, 769.0666666666667 441.25Q834.69 386.71, 889.2333333333333 452.33Q939.14 430.14, 961.3333333333334 480.04Q1040.25 438.79, 1081.5 517.7Q1085.19 449.29, 1153.6 452.98Q1181.68 408.97, 1225.6999999999998 437.05Q1312.05 403.23, 1345.8666666666666 489.58Q1394.75 418.3, 1466.0333333333333 467.19z" fill="#356cb1"></path><path d="M1466.0333333333333 558L0 558 L0 521.92Q49.54 499.36, 72.10000000000001 548.9Q107.32 463.95, 192.26666666666668 499.17Q239.65 474.46, 264.3666666666667 521.84Q319.99 505.36, 336.4666666666667 560.98Q360.67 513.08, 408.5666666666667 537.28Q460.13 468.68, 528.7333333333333 520.24Q604.68 476.02, 648.9 551.97Q675.1 506.07, 721 532.27Q796.26 487.37, 841.1666666666666 562.63Q908.01 509.31, 961.3333333333333 576.16Q977.66 520.39, 1033.4333333333332 536.72Q1101.72 484.84, 1153.6 553.13Q1185.78 465.15, 1273.7666666666667 497.33Q1321.8 473.26, 1345.8666666666666 521.29Q1421.57 476.83, 1466.0333333333333 552.54z" fill="white"></path></g><defs><mask id="SvgjsMask1045"><rect width="1442" height="558" fill="#ffffff"></rect></mask></defs></svg>