<svg xmlns="http://www.w3.org/2000/svg" version="1.1" xmlns:xlink="http://www.w3.org/1999/xlink" xmlns:svgjs="http://svgjs.com/svgjs" width="1445" height="564" preserveAspectRatio="none" viewBox="0 0 1445 564"><g mask="url(&quot;#SvgjsMask1026&quot;)" fill="none"><rect width="1445" height="564" x="0" y="0" fill="#0e2a47"></rect><path d="M-81.21 373.28L-81.21 373.28" stroke="#132e65" stroke-width="1.5"></path><path d="M-81.21 373.28L69.67 363.73" stroke="#132e65" stroke-width="1.5"></path><path d="M-81.21 373.28L-47.67 536.28" stroke="#132e65" stroke-width="1.5"></path><path d="M-81.21 373.28L67.48 544.07" stroke="#132e65" stroke-width="1.5"></path><path d="M-81.21 373.28L-73.87 684.94" stroke="#132e65" stroke-width="1.5"></path><path d="M-81.21 373.28L80.24 676.82" stroke="#132e65" stroke-width="1.5"></path><path d="M-47.67 536.28L-47.67 536.28" stroke="#132e65" stroke-width="1.5"></path><path d="M-47.67 536.28L67.48 544.07" stroke="#132e65" stroke-width="1.5"></path><path d="M-47.67 536.28L-73.87 684.94" stroke="#132e65" stroke-width="1.5"></path><path d="M-47.67 536.28L80.24 676.82" stroke="#132e65" stroke-width="1.5"></path><path d="M-47.67 536.28L69.67 363.73" stroke="#132e65" stroke-width="1.5"></path><path d="M-47.67 536.28L243.79 688.21" stroke="#132e65" stroke-width="1.5"></path><path d="M-73.87 684.94L-73.87 684.94" stroke="#132e65" stroke-width="1.5"></path><path d="M-73.87 684.94L80.24 676.82" stroke="#132e65" stroke-width="1.5"></path><path d="M-73.87 684.94L67.48 544.07" stroke="#132e65" stroke-width="1.5"></path><path d="M-73.87 684.94L243.79 688.21" stroke="#132e65" stroke-width="1.5"></path><path d="M69.67 363.73L69.67 363.73" stroke="#132e65" stroke-width="1.5"></path><path d="M69.67 363.73L67.48 544.07" stroke="#132e65" stroke-width="1.5"></path><path d="M67.48 544.07L67.48 544.07" stroke="#132e65" stroke-width="1.5"></path><path d="M67.48 544.07L80.24 676.82" stroke="#132e65" stroke-width="1.5"></path><path d="M80.24 676.82L80.24 676.82" stroke="#132e65" stroke-width="1.5"></path><path d="M243.79 688.21L243.79 688.21" stroke="#132e65" stroke-width="1.5"></path><path d="M243.79 688.21L342.83 640.48" stroke="#132e65" stroke-width="1.5"></path><path d="M353.84 400.32L353.84 400.32" stroke="#132e65" stroke-width="1.5"></path><path d="M353.84 400.32L380.17 531.55" stroke="#132e65" stroke-width="1.5"></path><path d="M353.84 400.32L532.44 378.97" stroke="#132e65" stroke-width="1.5"></path><path d="M380.17 531.55L380.17 531.55" stroke="#132e65" stroke-width="1.5"></path><path d="M380.17 531.55L342.83 640.48" stroke="#132e65" stroke-width="1.5"></path><path d="M380.17 531.55L507.79 547.01" stroke="#132e65" stroke-width="1.5"></path><path d="M342.83 640.48L342.83 640.48" stroke="#132e65" stroke-width="1.5"></path><path d="M342.83 640.48L507.79 547.01" stroke="#132e65" stroke-width="1.5"></path><path d="M342.83 640.48L531.51 693.48" stroke="#132e65" stroke-width="1.5"></path><path d="M532.44 378.97L532.44 378.97" stroke="#132e65" stroke-width="1.5"></path><path d="M532.44 378.97L687.32 404.67" stroke="#132e65" stroke-width="1.5"></path><path d="M532.44 378.97L507.79 547.01" stroke="#132e65" stroke-width="1.5"></path><path d="M532.44 378.97L655.75 243.49" stroke="#132e65" stroke-width="1.5"></path><path d="M532.44 378.97L650.08 525.19" stroke="#132e65" stroke-width="1.5"></path><path d="M507.79 547.01L507.79 547.01" stroke="#132e65" stroke-width="1.5"></path><path d="M531.51 693.48L531.51 693.48" stroke="#132e65" stroke-width="1.5"></path><path d="M531.51 693.48L507.79 547.01" stroke="#132e65" stroke-width="1.5"></path><path d="M531.51 693.48L706.21 683.02" stroke="#132e65" stroke-width="1.5"></path><path d="M531.51 693.48L650.08 525.19" stroke="#132e65" stroke-width="1.5"></path><path d="M531.51 693.48L380.17 531.55" stroke="#132e65" stroke-width="1.5"></path><path d="M655.75 243.49L655.75 243.49" stroke="#132e65" stroke-width="1.5"></path><path d="M655.75 243.49L687.32 404.67" stroke="#132e65" stroke-width="1.5"></path><path d="M655.75 243.49L851.29 393.41" stroke="#132e65" stroke-width="1.5"></path><path d="M655.75 243.49L650.08 525.19" stroke="#132e65" stroke-width="1.5"></path><path d="M655.75 243.49L967.9 346.15" stroke="#132e65" stroke-width="1.5"></path><path d="M687.32 404.67L687.32 404.67" stroke="#132e65" stroke-width="1.5"></path><path d="M687.32 404.67L650.08 525.19" stroke="#132e65" stroke-width="1.5"></path><path d="M687.32 404.67L851.29 393.41" stroke="#132e65" stroke-width="1.5"></path><path d="M687.32 404.67L824.98 550.68" stroke="#132e65" stroke-width="1.5"></path><path d="M650.08 525.19L650.08 525.19" stroke="#132e65" stroke-width="1.5"></path><path d="M650.08 525.19L507.79 547.01" stroke="#132e65" stroke-width="1.5"></path><path d="M650.08 525.19L706.21 683.02" stroke="#132e65" stroke-width="1.5"></path><path d="M650.08 525.19L824.98 550.68" stroke="#132e65" stroke-width="1.5"></path><path d="M706.21 683.02L706.21 683.02" stroke="#132e65" stroke-width="1.5"></path><path d="M706.21 683.02L859.52 684.82" stroke="#132e65" stroke-width="1.5"></path><path d="M851.29 393.41L851.29 393.41" stroke="#132e65" stroke-width="1.5"></path><path d="M851.29 393.41L967.9 346.15" stroke="#132e65" stroke-width="1.5"></path><path d="M851.29 393.41L824.98 550.68" stroke="#132e65" stroke-width="1.5"></path><path d="M851.29 393.41L946.67 560.6" stroke="#132e65" stroke-width="1.5"></path><path d="M851.29 393.41L996.2 220.67" stroke="#132e65" stroke-width="1.5"></path><path d="M824.98 550.68L824.98 550.68" stroke="#132e65" stroke-width="1.5"></path><path d="M824.98 550.68L946.67 560.6" stroke="#132e65" stroke-width="1.5"></path><path d="M824.98 550.68L859.52 684.82" stroke="#132e65" stroke-width="1.5"></path><path d="M859.52 684.82L859.52 684.82" stroke="#132e65" stroke-width="1.5"></path><path d="M859.52 684.82L971.9 667.4" stroke="#132e65" stroke-width="1.5"></path><path d="M966.9 -41.12L966.9 -41.12" stroke="#132e65" stroke-width="1.5"></path><path d="M966.9 -41.12L1000.13 104.15" stroke="#132e65" stroke-width="1.5"></path><path d="M966.9 -41.12L1117.83 44.75" stroke="#132e65" stroke-width="1.5"></path><path d="M966.9 -41.12L1161.19 -63.76" stroke="#132e65" stroke-width="1.5"></path><path d="M966.9 -41.12L996.2 220.67" stroke="#132e65" stroke-width="1.5"></path><path d="M966.9 -41.12L1091.33 238.18" stroke="#132e65" stroke-width="1.5"></path><path d="M1000.13 104.15L1000.13 104.15" stroke="#132e65" stroke-width="1.5"></path><path d="M1000.13 104.15L996.2 220.67" stroke="#132e65" stroke-width="1.5"></path><path d="M1000.13 104.15L1117.83 44.75" stroke="#132e65" stroke-width="1.5"></path><path d="M996.2 220.67L996.2 220.67" stroke="#132e65" stroke-width="1.5"></path><path d="M996.2 220.67L1091.33 238.18" stroke="#132e65" stroke-width="1.5"></path><path d="M996.2 220.67L967.9 346.15" stroke="#132e65" stroke-width="1.5"></path><path d="M996.2 220.67L1094.57 356.63" stroke="#132e65" stroke-width="1.5"></path><path d="M996.2 220.67L1117.83 44.75" stroke="#132e65" stroke-width="1.5"></path><path d="M967.9 346.15L967.9 346.15" stroke="#132e65" stroke-width="1.5"></path><path d="M967.9 346.15L1094.57 356.63" stroke="#132e65" stroke-width="1.5"></path><path d="M967.9 346.15L1091.33 238.18" stroke="#132e65" stroke-width="1.5"></path><path d="M946.67 560.6L946.67 560.6" stroke="#132e65" stroke-width="1.5"></path><path d="M946.67 560.6L971.9 667.4" stroke="#132e65" stroke-width="1.5"></path><path d="M971.9 667.4L971.9 667.4" stroke="#132e65" stroke-width="1.5"></path><path d="M971.9 667.4L1104.56 697.77" stroke="#132e65" stroke-width="1.5"></path><path d="M971.9 667.4L824.98 550.68" stroke="#132e65" stroke-width="1.5"></path><path d="M971.9 667.4L1135.21 495.76" stroke="#132e65" stroke-width="1.5"></path><path d="M971.9 667.4L706.21 683.02" stroke="#132e65" stroke-width="1.5"></path><path d="M1161.19 -63.76L1161.19 -63.76" stroke="#132e65" stroke-width="1.5"></path><path d="M1161.19 -63.76L1271.83 -71.31" stroke="#132e65" stroke-width="1.5"></path><path d="M1161.19 -63.76L1117.83 44.75" stroke="#132e65" stroke-width="1.5"></path><path d="M1117.83 44.75L1117.83 44.75" stroke="#132e65" stroke-width="1.5"></path><path d="M1117.83 44.75L1251.29 103.72" stroke="#132e65" stroke-width="1.5"></path><path d="M1117.83 44.75L1271.83 -71.31" stroke="#132e65" stroke-width="1.5"></path><path d="M1091.33 238.18L1091.33 238.18" stroke="#132e65" stroke-width="1.5"></path><path d="M1094.57 356.63L1094.57 356.63" stroke="#132e65" stroke-width="1.5"></path><path d="M1094.57 356.63L1091.33 238.18" stroke="#132e65" stroke-width="1.5"></path><path d="M1135.21 495.76L1135.21 495.76" stroke="#132e65" stroke-width="1.5"></path><path d="M1135.21 495.76L1241.94 398.38" stroke="#132e65" stroke-width="1.5"></path><path d="M1135.21 495.76L1094.57 356.63" stroke="#132e65" stroke-width="1.5"></path><path d="M1135.21 495.76L1312.25 540.55" stroke="#132e65" stroke-width="1.5"></path><path d="M1135.21 495.76L946.67 560.6" stroke="#132e65" stroke-width="1.5"></path><path d="M1104.56 697.77L1104.56 697.77" stroke="#132e65" stroke-width="1.5"></path><path d="M1104.56 697.77L1297.48 695.61" stroke="#132e65" stroke-width="1.5"></path><path d="M1104.56 697.77L1135.21 495.76" stroke="#132e65" stroke-width="1.5"></path><path d="M1104.56 697.77L946.67 560.6" stroke="#132e65" stroke-width="1.5"></path><path d="M1104.56 697.77L859.52 684.82" stroke="#132e65" stroke-width="1.5"></path><path d="M1271.83 -71.31L1271.83 -71.31" stroke="#132e65" stroke-width="1.5"></path><path d="M1271.83 -71.31L1428.4 -84.28" stroke="#132e65" stroke-width="1.5"></path><path d="M1271.83 -71.31L1251.29 103.72" stroke="#132e65" stroke-width="1.5"></path><path d="M1251.29 103.72L1251.29 103.72" stroke="#132e65" stroke-width="1.5"></path><path d="M1251.29 103.72L1277.73 216.31" stroke="#132e65" stroke-width="1.5"></path><path d="M1251.29 103.72L1161.19 -63.76" stroke="#132e65" stroke-width="1.5"></path><path d="M1277.73 216.31L1277.73 216.31" stroke="#132e65" stroke-width="1.5"></path><path d="M1277.73 216.31L1425.92 258.51" stroke="#132e65" stroke-width="1.5"></path><path d="M1241.94 398.38L1241.94 398.38" stroke="#132e65" stroke-width="1.5"></path><path d="M1241.94 398.38L1094.57 356.63" stroke="#132e65" stroke-width="1.5"></path><path d="M1241.94 398.38L1312.25 540.55" stroke="#132e65" stroke-width="1.5"></path><path d="M1241.94 398.38L1408.53 339.45" stroke="#132e65" stroke-width="1.5"></path><path d="M1241.94 398.38L1277.73 216.31" stroke="#132e65" stroke-width="1.5"></path><path d="M1241.94 398.38L1091.33 238.18" stroke="#132e65" stroke-width="1.5"></path><path d="M1312.25 540.55L1312.25 540.55" stroke="#132e65" stroke-width="1.5"></path><path d="M1312.25 540.55L1410.05 541.63" stroke="#132e65" stroke-width="1.5"></path><path d="M1312.25 540.55L1297.48 695.61" stroke="#132e65" stroke-width="1.5"></path><path d="M1297.48 695.61L1297.48 695.61" stroke="#132e65" stroke-width="1.5"></path><path d="M1297.48 695.61L1429.18 703.97" stroke="#132e65" stroke-width="1.5"></path><path d="M1297.48 695.61L1410.05 541.63" stroke="#132e65" stroke-width="1.5"></path><path d="M1428.4 -84.28L1428.4 -84.28" stroke="#132e65" stroke-width="1.5"></path><path d="M1428.4 -84.28L1558.12 -104.37" stroke="#132e65" stroke-width="1.5"></path><path d="M1428.4 -84.28L1451.12 88.25" stroke="#132e65" stroke-width="1.5"></path><path d="M1428.4 -84.28L1551.26 61.23" stroke="#132e65" stroke-width="1.5"></path><path d="M1428.4 -84.28L1251.29 103.72" stroke="#132e65" stroke-width="1.5"></path><path d="M1451.12 88.25L1451.12 88.25" stroke="#132e65" stroke-width="1.5"></path><path d="M1451.12 88.25L1551.26 61.23" stroke="#132e65" stroke-width="1.5"></path><path d="M1451.12 88.25L1425.92 258.51" stroke="#132e65" stroke-width="1.5"></path><path d="M1451.12 88.25L1571.25 243.86" stroke="#132e65" stroke-width="1.5"></path><path d="M1451.12 88.25L1251.29 103.72" stroke="#132e65" stroke-width="1.5"></path><path d="M1425.92 258.51L1425.92 258.51" stroke="#132e65" stroke-width="1.5"></path><path d="M1425.92 258.51L1408.53 339.45" stroke="#132e65" stroke-width="1.5"></path><path d="M1425.92 258.51L1571.25 243.86" stroke="#132e65" stroke-width="1.5"></path><path d="M1408.53 339.45L1408.53 339.45" stroke="#132e65" stroke-width="1.5"></path><path d="M1408.53 339.45L1567.43 341.65" stroke="#132e65" stroke-width="1.5"></path><path d="M1408.53 339.45L1277.73 216.31" stroke="#132e65" stroke-width="1.5"></path><path d="M1408.53 339.45L1571.25 243.86" stroke="#132e65" stroke-width="1.5"></path><path d="M1410.05 541.63L1410.05 541.63" stroke="#132e65" stroke-width="1.5"></path><path d="M1410.05 541.63L1429.18 703.97" stroke="#132e65" stroke-width="1.5"></path><path d="M1429.18 703.97L1429.18 703.97" stroke="#132e65" stroke-width="1.5"></path><path d="M1429.18 703.97L1582.19 668.47" stroke="#132e65" stroke-width="1.5"></path><path d="M1429.18 703.97L1312.25 540.55" stroke="#132e65" stroke-width="1.5"></path><path d="M1558.12 -104.37L1558.12 -104.37" stroke="#132e65" stroke-width="1.5"></path><path d="M1558.12 -104.37L1551.26 61.23" stroke="#132e65" stroke-width="1.5"></path><path d="M1551.26 61.23L1551.26 61.23" stroke="#132e65" stroke-width="1.5"></path><path d="M1551.26 61.23L1571.25 243.86" stroke="#132e65" stroke-width="1.5"></path><path d="M1551.26 61.23L1425.92 258.51" stroke="#132e65" stroke-width="1.5"></path><path d="M1551.26 61.23L1567.43 341.65" stroke="#132e65" stroke-width="1.5"></path><path d="M1571.25 243.86L1571.25 243.86" stroke="#132e65" stroke-width="1.5"></path><path d="M1571.25 243.86L1567.43 341.65" stroke="#132e65" stroke-width="1.5"></path><path d="M1567.43 341.65L1567.43 341.65" stroke="#132e65" stroke-width="1.5"></path><path d="M1567.43 341.65L1425.92 258.51" stroke="#132e65" stroke-width="1.5"></path><path d="M1604.75 501.6L1604.75 501.6" stroke="#132e65" stroke-width="1.5"></path><path d="M1604.75 501.6L1567.43 341.65" stroke="#132e65" stroke-width="1.5"></path><path d="M1604.75 501.6L1582.19 668.47" stroke="#132e65" stroke-width="1.5"></path><path d="M1604.75 501.6L1410.05 541.63" stroke="#132e65" stroke-width="1.5"></path><path d="M1604.75 501.6L1408.53 339.45" stroke="#132e65" stroke-width="1.5"></path><path d="M1604.75 501.6L1571.25 243.86" stroke="#132e65" stroke-width="1.5"></path><path d="M1582.19 668.47L1582.19 668.47" stroke="#132e65" stroke-width="1.5"></path><path d="M1582.19 668.47L1410.05 541.63" stroke="#132e65" stroke-width="1.5"></path><path d="M1582.19 668.47L1297.48 695.61" stroke="#132e65" stroke-width="1.5"></path><path d="M1582.19 668.47L1312.25 540.55" stroke="#132e65" stroke-width="1.5"></path><path d="M1582.19 668.47L1567.43 341.65" stroke="#132e65" stroke-width="1.5"></path><circle r="5" cx="-81.21" cy="373.28" fill="#132e65"></circle><circle r="5" cx="-47.67" cy="536.28" fill="#132e65"></circle><circle r="5" cx="-73.87" cy="684.94" fill="#132e65"></circle><circle r="5" cx="69.67" cy="363.73" fill="#132e65"></circle><circle r="5" cx="67.48" cy="544.07" fill="#132e65"></circle><circle r="5" cx="80.24" cy="676.82" fill="#132e65"></circle><circle r="5" cx="243.79" cy="688.21" fill="#132e65"></circle><circle r="5" cx="353.84" cy="400.32" fill="#132e65"></circle><circle r="5" cx="380.17" cy="531.55" fill="#132e65"></circle><circle r="5" cx="342.83" cy="640.48" fill="#132e65"></circle><circle r="5" cx="532.44" cy="378.97" fill="#132e65"></circle><circle r="5" cx="507.79" cy="547.01" fill="#132e65"></circle><circle r="5" cx="531.51" cy="693.48" fill="#132e65"></circle><circle r="5" cx="655.75" cy="243.49" fill="#132e65"></circle><circle r="5" cx="687.32" cy="404.67" fill="#132e65"></circle><circle r="5" cx="650.08" cy="525.19" fill="#132e65"></circle><circle r="5" cx="706.21" cy="683.02" fill="#132e65"></circle><circle r="5" cx="851.29" cy="393.41" fill="#132e65"></circle><circle r="5" cx="824.98" cy="550.68" fill="#132e65"></circle><circle r="5" cx="859.52" cy="684.82" fill="#132e65"></circle><circle r="5" cx="966.9" cy="-41.12" fill="#132e65"></circle><circle r="5" cx="1000.13" cy="104.15" fill="#132e65"></circle><circle r="5" cx="996.2" cy="220.67" fill="#132e65"></circle><circle r="5" cx="967.9" cy="346.15" fill="#132e65"></circle><circle r="5" cx="946.67" cy="560.6" fill="#132e65"></circle><circle r="5" cx="971.9" cy="667.4" fill="#132e65"></circle><circle r="5" cx="1161.19" cy="-63.76" fill="#132e65"></circle><circle r="5" cx="1117.83" cy="44.75" fill="#132e65"></circle><circle r="5" cx="1091.33" cy="238.18" fill="#132e65"></circle><circle r="5" cx="1094.57" cy="356.63" fill="#132e65"></circle><circle r="5" cx="1135.21" cy="495.76" fill="#132e65"></circle><circle r="5" cx="1104.56" cy="697.77" fill="#132e65"></circle><circle r="5" cx="1271.83" cy="-71.31" fill="#132e65"></circle><circle r="5" cx="1251.29" cy="103.72" fill="#132e65"></circle><circle r="5" cx="1277.73" cy="216.31" fill="#132e65"></circle><circle r="5" cx="1241.94" cy="398.38" fill="#132e65"></circle><circle r="5" cx="1312.25" cy="540.55" fill="#132e65"></circle><circle r="5" cx="1297.48" cy="695.61" fill="#132e65"></circle><circle r="5" cx="1428.4" cy="-84.28" fill="#132e65"></circle><circle r="5" cx="1451.12" cy="88.25" fill="#132e65"></circle><circle r="5" cx="1425.92" cy="258.51" fill="#132e65"></circle><circle r="5" cx="1408.53" cy="339.45" fill="#132e65"></circle><circle r="5" cx="1410.05" cy="541.63" fill="#132e65"></circle><circle r="5" cx="1429.18" cy="703.97" fill="#132e65"></circle><circle r="5" cx="1558.12" cy="-104.37" fill="#132e65"></circle><circle r="5" cx="1551.26" cy="61.23" fill="#132e65"></circle><circle r="5" cx="1571.25" cy="243.86" fill="#132e65"></circle><circle r="5" cx="1567.43" cy="341.65" fill="#132e65"></circle><circle r="5" cx="1604.75" cy="501.6" fill="#132e65"></circle><circle r="5" cx="1582.19" cy="668.47" fill="#132e65"></circle><path d="M-97.26 539L-97.26 539" stroke="hsl(228.5, 77.2%, 51.5%)" stroke-width="1.5"></path><path d="M-97.26 539L82.02 507.47" stroke="hsl(228.5, 77.2%, 51.5%)" stroke-width="1.5"></path><path d="M-97.26 539L95.64 675.13" stroke="hsl(228.5, 77.2%, 51.5%)" stroke-width="1.5"></path><path d="M-97.26 539L219.83 551.92" stroke="hsl(228.5, 77.2%, 51.5%)" stroke-width="1.5"></path><path d="M-97.26 539L224.41 691.49" stroke="hsl(228.5, 77.2%, 51.5%)" stroke-width="1.5"></path><path d="M-97.26 539L363.73 519.83" stroke="hsl(228.5, 77.2%, 51.5%)" stroke-width="1.5"></path><path d="M-97.26 539L399.61 708.16" stroke="hsl(228.5, 77.2%, 51.5%)" stroke-width="1.5"></path><path d="M846.58 410.76L846.58 410.76" stroke="hsl(228.5, 77.2%, 51.5%)" stroke-width="1.5"></path><path d="M846.58 410.76L963.64 495.29" stroke="hsl(228.5, 77.2%, 51.5%)" stroke-width="1.5"></path><path d="M846.58 410.76L852.7 559.84" stroke="hsl(228.5, 77.2%, 51.5%)" stroke-width="1.5"></path><path d="M963.64 495.29L963.64 495.29" stroke="hsl(228.5, 77.2%, 51.5%)" stroke-width="1.5"></path><path d="M963.64 495.29L852.7 559.84" stroke="hsl(228.5, 77.2%, 51.5%)" stroke-width="1.5"></path><path d="M1451.54 387.89L1451.54 387.89" stroke="hsl(228.5, 77.2%, 51.5%)" stroke-width="1.5"></path><path d="M1451.54 387.89L1590.03 357.36" stroke="hsl(228.5, 77.2%, 51.5%)" stroke-width="1.5"></path><path d="M1451.54 387.89L1568.95 505.49" stroke="hsl(228.5, 77.2%, 51.5%)" stroke-width="1.5"></path><path d="M1451.54 387.89L1284.6 383.13" stroke="hsl(228.5, 77.2%, 51.5%)" stroke-width="1.5"></path><path d="M1451.54 387.89L1416.22 556.81" stroke="hsl(228.5, 77.2%, 51.5%)" stroke-width="1.5"></path><path d="M1451.54 387.89L1406.52 201.38" stroke="hsl(228.5, 77.2%, 51.5%)" stroke-width="1.5"></path><path d="M1601.8 -55.38L1601.8 -55.38" stroke="hsl(228.5, 77.2%, 51.5%)" stroke-width="1.5"></path><path d="M1601.8 -55.38L1571.56 90.66" stroke="hsl(228.5, 77.2%, 51.5%)" stroke-width="1.5"></path><path d="M1601.8 -55.38L1432.11 -85.95" stroke="hsl(228.5, 77.2%, 51.5%)" stroke-width="1.5"></path><path d="M1601.8 -55.38L1456.82 94" stroke="hsl(228.5, 77.2%, 51.5%)" stroke-width="1.5"></path><path d="M1601.8 -55.38L1548.65 208" stroke="hsl(228.5, 77.2%, 51.5%)" stroke-width="1.5"></path><path d="M1548.65 208L1548.65 208" stroke="hsl(228.5, 77.2%, 51.5%)" stroke-width="1.5"></path><path d="M1548.65 208L1571.56 90.66" stroke="hsl(228.5, 77.2%, 51.5%)" stroke-width="1.5"></path><path d="M1548.65 208L1406.52 201.38" stroke="hsl(228.5, 77.2%, 51.5%)" stroke-width="1.5"></path><path d="M1548.65 208L1456.82 94" stroke="hsl(228.5, 77.2%, 51.5%)" stroke-width="1.5"></path><path d="M1548.65 208L1590.03 357.36" stroke="hsl(228.5, 77.2%, 51.5%)" stroke-width="1.5"></path><path d="M1548.65 208L1451.54 387.89" stroke="hsl(228.5, 77.2%, 51.5%)" stroke-width="1.5"></path><path d="M1568.95 505.49L1568.95 505.49" stroke="hsl(228.5, 77.2%, 51.5%)" stroke-width="1.5"></path><path d="M1568.95 505.49L1590.03 357.36" stroke="hsl(228.5, 77.2%, 51.5%)" stroke-width="1.5"></path><path d="M1568.95 505.49L1416.22 556.81" stroke="hsl(228.5, 77.2%, 51.5%)" stroke-width="1.5"></path><path d="M1552.52 696.71L1552.52 696.71" stroke="hsl(228.5, 77.2%, 51.5%)" stroke-width="1.5"></path><path d="M1552.52 696.71L1568.95 505.49" stroke="hsl(228.5, 77.2%, 51.5%)" stroke-width="1.5"></path><path d="M1552.52 696.71L1416.22 556.81" stroke="hsl(228.5, 77.2%, 51.5%)" stroke-width="1.5"></path><path d="M1552.52 696.71L1267.36 707.03" stroke="hsl(228.5, 77.2%, 51.5%)" stroke-width="1.5"></path><path d="M1552.52 696.71L1270.12 550.71" stroke="hsl(228.5, 77.2%, 51.5%)" stroke-width="1.5"></path><path d="M1552.52 696.71L1451.54 387.89" stroke="hsl(228.5, 77.2%, 51.5%)" stroke-width="1.5"></path><path d="M1552.52 696.71L1590.03 357.36" stroke="hsl(228.5, 77.2%, 51.5%)" stroke-width="1.5"></path><path d="M82.02 507.47L82.02 507.47" stroke="hsl(228.5, 77.2%, 51.5%)" stroke-width="1.5"></path><path d="M82.02 507.47L219.83 551.92" stroke="hsl(228.5, 77.2%, 51.5%)" stroke-width="1.5"></path><path d="M82.02 507.47L95.64 675.13" stroke="hsl(228.5, 77.2%, 51.5%)" stroke-width="1.5"></path><path d="M95.64 675.13L95.64 675.13" stroke="hsl(228.5, 77.2%, 51.5%)" stroke-width="1.5"></path><path d="M95.64 675.13L224.41 691.49" stroke="hsl(228.5, 77.2%, 51.5%)" stroke-width="1.5"></path><path d="M95.64 675.13L219.83 551.92" stroke="hsl(228.5, 77.2%, 51.5%)" stroke-width="1.5"></path><path d="M95.64 675.13L399.61 708.16" stroke="hsl(228.5, 77.2%, 51.5%)" stroke-width="1.5"></path><path d="M219.83 551.92L219.83 551.92" stroke="hsl(228.5, 77.2%, 51.5%)" stroke-width="1.5"></path><path d="M219.83 551.92L224.41 691.49" stroke="hsl(228.5, 77.2%, 51.5%)" stroke-width="1.5"></path><path d="M224.41 691.49L224.41 691.49" stroke="hsl(228.5, 77.2%, 51.5%)" stroke-width="1.5"></path><path d="M224.41 691.49L399.61 708.16" stroke="hsl(228.5, 77.2%, 51.5%)" stroke-width="1.5"></path><path d="M224.41 691.49L363.73 519.83" stroke="hsl(228.5, 77.2%, 51.5%)" stroke-width="1.5"></path><path d="M224.41 691.49L82.02 507.47" stroke="hsl(228.5, 77.2%, 51.5%)" stroke-width="1.5"></path><path d="M224.41 691.49L508.57 537.82" stroke="hsl(228.5, 77.2%, 51.5%)" stroke-width="1.5"></path><path d="M363.73 519.83L363.73 519.83" stroke="hsl(228.5, 77.2%, 51.5%)" stroke-width="1.5"></path><path d="M363.73 519.83L508.57 537.82" stroke="hsl(228.5, 77.2%, 51.5%)" stroke-width="1.5"></path><path d="M363.73 519.83L219.83 551.92" stroke="hsl(228.5, 77.2%, 51.5%)" stroke-width="1.5"></path><path d="M363.73 519.83L399.61 708.16" stroke="hsl(228.5, 77.2%, 51.5%)" stroke-width="1.5"></path><path d="M399.61 708.16L399.61 708.16" stroke="hsl(228.5, 77.2%, 51.5%)" stroke-width="1.5"></path><path d="M399.61 708.16L557.99 661.4" stroke="hsl(228.5, 77.2%, 51.5%)" stroke-width="1.5"></path><path d="M399.61 708.16L508.57 537.82" stroke="hsl(228.5, 77.2%, 51.5%)" stroke-width="1.5"></path><path d="M399.61 708.16L219.83 551.92" stroke="hsl(228.5, 77.2%, 51.5%)" stroke-width="1.5"></path><path d="M399.61 708.16L640.39 650.41" stroke="hsl(228.5, 77.2%, 51.5%)" stroke-width="1.5"></path><path d="M508.57 537.82L508.57 537.82" stroke="hsl(228.5, 77.2%, 51.5%)" stroke-width="1.5"></path><path d="M508.57 537.82L557.99 661.4" stroke="hsl(228.5, 77.2%, 51.5%)" stroke-width="1.5"></path><path d="M508.57 537.82L666.57 533.82" stroke="hsl(228.5, 77.2%, 51.5%)" stroke-width="1.5"></path><path d="M508.57 537.82L640.39 650.41" stroke="hsl(228.5, 77.2%, 51.5%)" stroke-width="1.5"></path><path d="M557.99 661.4L557.99 661.4" stroke="hsl(228.5, 77.2%, 51.5%)" stroke-width="1.5"></path><path d="M557.99 661.4L640.39 650.41" stroke="hsl(228.5, 77.2%, 51.5%)" stroke-width="1.5"></path><path d="M557.99 661.4L666.57 533.82" stroke="hsl(228.5, 77.2%, 51.5%)" stroke-width="1.5"></path><path d="M658.97 410.58L658.97 410.58" stroke="hsl(228.5, 77.2%, 51.5%)" stroke-width="1.5"></path><path d="M658.97 410.58L666.57 533.82" stroke="hsl(228.5, 77.2%, 51.5%)" stroke-width="1.5"></path><path d="M658.97 410.58L846.58 410.76" stroke="hsl(228.5, 77.2%, 51.5%)" stroke-width="1.5"></path><path d="M658.97 410.58L508.57 537.82" stroke="hsl(228.5, 77.2%, 51.5%)" stroke-width="1.5"></path><path d="M666.57 533.82L666.57 533.82" stroke="hsl(228.5, 77.2%, 51.5%)" stroke-width="1.5"></path><path d="M666.57 533.82L640.39 650.41" stroke="hsl(228.5, 77.2%, 51.5%)" stroke-width="1.5"></path><path d="M640.39 650.41L640.39 650.41" stroke="hsl(228.5, 77.2%, 51.5%)" stroke-width="1.5"></path><path d="M640.39 650.41L794.96 673.75" stroke="hsl(228.5, 77.2%, 51.5%)" stroke-width="1.5"></path><path d="M640.39 650.41L852.7 559.84" stroke="hsl(228.5, 77.2%, 51.5%)" stroke-width="1.5"></path><path d="M640.39 650.41L658.97 410.58" stroke="hsl(228.5, 77.2%, 51.5%)" stroke-width="1.5"></path><path d="M852.7 559.84L852.7 559.84" stroke="hsl(228.5, 77.2%, 51.5%)" stroke-width="1.5"></path><path d="M852.7 559.84L794.96 673.75" stroke="hsl(228.5, 77.2%, 51.5%)" stroke-width="1.5"></path><path d="M794.96 673.75L794.96 673.75" stroke="hsl(228.5, 77.2%, 51.5%)" stroke-width="1.5"></path><path d="M794.96 673.75L970.01 666.87" stroke="hsl(228.5, 77.2%, 51.5%)" stroke-width="1.5"></path><path d="M794.96 673.75L666.57 533.82" stroke="hsl(228.5, 77.2%, 51.5%)" stroke-width="1.5"></path><path d="M794.96 673.75L557.99 661.4" stroke="hsl(228.5, 77.2%, 51.5%)" stroke-width="1.5"></path><path d="M794.96 673.75L963.64 495.29" stroke="hsl(228.5, 77.2%, 51.5%)" stroke-width="1.5"></path><path d="M970.01 666.87L970.01 666.87" stroke="hsl(228.5, 77.2%, 51.5%)" stroke-width="1.5"></path><path d="M970.01 666.87L852.7 559.84" stroke="hsl(228.5, 77.2%, 51.5%)" stroke-width="1.5"></path><path d="M1122.19 109.1L1122.19 109.1" stroke="hsl(228.5, 77.2%, 51.5%)" stroke-width="1.5"></path><path d="M1122.19 109.1L1157.5 240.94" stroke="hsl(228.5, 77.2%, 51.5%)" stroke-width="1.5"></path><path d="M1122.19 109.1L1272.07 89.98" stroke="hsl(228.5, 77.2%, 51.5%)" stroke-width="1.5"></path><path d="M1122.19 109.1L1254.91 219.84" stroke="hsl(228.5, 77.2%, 51.5%)" stroke-width="1.5"></path><path d="M1122.19 109.1L1240.95 -45.35" stroke="hsl(228.5, 77.2%, 51.5%)" stroke-width="1.5"></path><path d="M1122.19 109.1L1130.87 401.14" stroke="hsl(228.5, 77.2%, 51.5%)" stroke-width="1.5"></path><path d="M1157.5 240.94L1157.5 240.94" stroke="hsl(228.5, 77.2%, 51.5%)" stroke-width="1.5"></path><path d="M1157.5 240.94L1254.91 219.84" stroke="hsl(228.5, 77.2%, 51.5%)" stroke-width="1.5"></path><path d="M1157.5 240.94L1130.87 401.14" stroke="hsl(228.5, 77.2%, 51.5%)" stroke-width="1.5"></path><path d="M1130.87 401.14L1130.87 401.14" stroke="hsl(228.5, 77.2%, 51.5%)" stroke-width="1.5"></path><path d="M1130.87 401.14L1147.59 550.83" stroke="hsl(228.5, 77.2%, 51.5%)" stroke-width="1.5"></path><path d="M1130.87 401.14L1284.6 383.13" stroke="hsl(228.5, 77.2%, 51.5%)" stroke-width="1.5"></path><path d="M1147.59 550.83L1147.59 550.83" stroke="hsl(228.5, 77.2%, 51.5%)" stroke-width="1.5"></path><path d="M1147.59 550.83L1270.12 550.71" stroke="hsl(228.5, 77.2%, 51.5%)" stroke-width="1.5"></path><path d="M1147.59 550.83L963.64 495.29" stroke="hsl(228.5, 77.2%, 51.5%)" stroke-width="1.5"></path><path d="M1240.95 -45.35L1240.95 -45.35" stroke="hsl(228.5, 77.2%, 51.5%)" stroke-width="1.5"></path><path d="M1240.95 -45.35L1272.07 89.98" stroke="hsl(228.5, 77.2%, 51.5%)" stroke-width="1.5"></path><path d="M1240.95 -45.35L1432.11 -85.95" stroke="hsl(228.5, 77.2%, 51.5%)" stroke-width="1.5"></path><path d="M1272.07 89.98L1272.07 89.98" stroke="hsl(228.5, 77.2%, 51.5%)" stroke-width="1.5"></path><path d="M1272.07 89.98L1254.91 219.84" stroke="hsl(228.5, 77.2%, 51.5%)" stroke-width="1.5"></path><path d="M1272.07 89.98L1406.52 201.38" stroke="hsl(228.5, 77.2%, 51.5%)" stroke-width="1.5"></path><path d="M1272.07 89.98L1456.82 94" stroke="hsl(228.5, 77.2%, 51.5%)" stroke-width="1.5"></path><path d="M1254.91 219.84L1254.91 219.84" stroke="hsl(228.5, 77.2%, 51.5%)" stroke-width="1.5"></path><path d="M1254.91 219.84L1406.52 201.38" stroke="hsl(228.5, 77.2%, 51.5%)" stroke-width="1.5"></path><path d="M1254.91 219.84L1284.6 383.13" stroke="hsl(228.5, 77.2%, 51.5%)" stroke-width="1.5"></path><path d="M1254.91 219.84L1130.87 401.14" stroke="hsl(228.5, 77.2%, 51.5%)" stroke-width="1.5"></path><path d="M1284.6 383.13L1284.6 383.13" stroke="hsl(228.5, 77.2%, 51.5%)" stroke-width="1.5"></path><path d="M1284.6 383.13L1270.12 550.71" stroke="hsl(228.5, 77.2%, 51.5%)" stroke-width="1.5"></path><path d="M1284.6 383.13L1157.5 240.94" stroke="hsl(228.5, 77.2%, 51.5%)" stroke-width="1.5"></path><path d="M1270.12 550.71L1270.12 550.71" stroke="hsl(228.5, 77.2%, 51.5%)" stroke-width="1.5"></path><path d="M1270.12 550.71L1416.22 556.81" stroke="hsl(228.5, 77.2%, 51.5%)" stroke-width="1.5"></path><path d="M1270.12 550.71L1267.36 707.03" stroke="hsl(228.5, 77.2%, 51.5%)" stroke-width="1.5"></path><path d="M1267.36 707.03L1267.36 707.03" stroke="hsl(228.5, 77.2%, 51.5%)" stroke-width="1.5"></path><path d="M1267.36 707.03L1147.59 550.83" stroke="hsl(228.5, 77.2%, 51.5%)" stroke-width="1.5"></path><path d="M1267.36 707.03L1416.22 556.81" stroke="hsl(228.5, 77.2%, 51.5%)" stroke-width="1.5"></path><path d="M1432.11 -85.95L1432.11 -85.95" stroke="hsl(228.5, 77.2%, 51.5%)" stroke-width="1.5"></path><path d="M1432.11 -85.95L1456.82 94" stroke="hsl(228.5, 77.2%, 51.5%)" stroke-width="1.5"></path><path d="M1432.11 -85.95L1571.56 90.66" stroke="hsl(228.5, 77.2%, 51.5%)" stroke-width="1.5"></path><path d="M1456.82 94L1456.82 94" stroke="hsl(228.5, 77.2%, 51.5%)" stroke-width="1.5"></path><path d="M1456.82 94L1571.56 90.66" stroke="hsl(228.5, 77.2%, 51.5%)" stroke-width="1.5"></path><path d="M1456.82 94L1406.52 201.38" stroke="hsl(228.5, 77.2%, 51.5%)" stroke-width="1.5"></path><path d="M1406.52 201.38L1406.52 201.38" stroke="hsl(228.5, 77.2%, 51.5%)" stroke-width="1.5"></path><path d="M1406.52 201.38L1571.56 90.66" stroke="hsl(228.5, 77.2%, 51.5%)" stroke-width="1.5"></path><path d="M1416.22 556.81L1416.22 556.81" stroke="hsl(228.5, 77.2%, 51.5%)" stroke-width="1.5"></path><path d="M1571.56 90.66L1571.56 90.66" stroke="hsl(228.5, 77.2%, 51.5%)" stroke-width="1.5"></path><path d="M1590.03 357.36L1590.03 357.36" stroke="hsl(228.5, 77.2%, 51.5%)" stroke-width="1.5"></path><circle r="25" cx="-97.26" cy="539" fill="url(#SvgjsRadialGradient1027)"></circle><circle r="25" cx="846.58" cy="410.76" fill="url(#SvgjsRadialGradient1027)"></circle><circle r="25" cx="963.64" cy="495.29" fill="url(#SvgjsRadialGradient1027)"></circle><circle r="25" cx="1451.54" cy="387.89" fill="url(#SvgjsRadialGradient1027)"></circle><circle r="25" cx="1601.8" cy="-55.38" fill="url(#SvgjsRadialGradient1027)"></circle><circle r="25" cx="1548.65" cy="208" fill="url(#SvgjsRadialGradient1027)"></circle><circle r="25" cx="1568.95" cy="505.49" fill="url(#SvgjsRadialGradient1027)"></circle><circle r="25" cx="1552.52" cy="696.71" fill="url(#SvgjsRadialGradient1027)"></circle><circle r="5" cx="82.02" cy="507.47" fill="#8b9ad9"></circle><circle r="5" cx="95.64" cy="675.13" fill="#8b9ad9"></circle><circle r="5" cx="219.83" cy="551.92" fill="#8b9ad9"></circle><circle r="5" cx="224.41" cy="691.49" fill="#8b9ad9"></circle><circle r="5" cx="363.73" cy="519.83" fill="#8b9ad9"></circle><circle r="5" cx="399.61" cy="708.16" fill="#8b9ad9"></circle><circle r="5" cx="508.57" cy="537.82" fill="#8b9ad9"></circle><circle r="5" cx="557.99" cy="661.4" fill="#8b9ad9"></circle><circle r="5" cx="658.97" cy="410.58" fill="#8b9ad9"></circle><circle r="5" cx="666.57" cy="533.82" fill="#8b9ad9"></circle><circle r="5" cx="640.39" cy="650.41" fill="#8b9ad9"></circle><circle r="5" cx="852.7" cy="559.84" fill="#8b9ad9"></circle><circle r="5" cx="794.96" cy="673.75" fill="#8b9ad9"></circle><circle r="5" cx="970.01" cy="666.87" fill="#8b9ad9"></circle><circle r="5" cx="1122.19" cy="109.1" fill="#8b9ad9"></circle><circle r="5" cx="1157.5" cy="240.94" fill="#8b9ad9"></circle><circle r="5" cx="1130.87" cy="401.14" fill="#8b9ad9"></circle><circle r="5" cx="1147.59" cy="550.83" fill="#8b9ad9"></circle><circle r="5" cx="1240.95" cy="-45.35" fill="#8b9ad9"></circle><circle r="5" cx="1272.07" cy="89.98" fill="#8b9ad9"></circle><circle r="5" cx="1254.91" cy="219.84" fill="#8b9ad9"></circle><circle r="5" cx="1284.6" cy="383.13" fill="#8b9ad9"></circle><circle r="5" cx="1270.12" cy="550.71" fill="#8b9ad9"></circle><circle r="5" cx="1267.36" cy="707.03" fill="#8b9ad9"></circle><circle r="5" cx="1432.11" cy="-85.95" fill="#8b9ad9"></circle><circle r="5" cx="1456.82" cy="94" fill="#8b9ad9"></circle><circle r="5" cx="1406.52" cy="201.38" fill="#8b9ad9"></circle><circle r="5" cx="1416.22" cy="556.81" fill="#8b9ad9"></circle><circle r="5" cx="1571.56" cy="90.66" fill="#8b9ad9"></circle><circle r="5" cx="1590.03" cy="357.36" fill="#8b9ad9"></circle></g><defs><mask id="SvgjsMask1026"><rect width="1445" height="564" fill="#ffffff"></rect></mask><radialGradient id="SvgjsRadialGradient1027"><stop stop-color="#ffffff" offset="0.1"></stop><stop stop-color="#1735b3" offset="0.2"></stop><stop stop-color="rgba(23, 53, 179, 0)" offset="1"></stop></radialGradient></defs></svg>